<svg width="100%" height="100%" viewBox="0 0 16 16" fill="none" xmlns="http://www.w3.org/2000/svg">
<rect width="16" height="16" rx="4.2" fill="black"></rect>
<path d="M5.74148 5.18182H6.79545V8.98295C6.79545 9.39962 6.69697 9.7661 6.5 10.0824C6.30492 10.3987 6.0303 10.6458 5.67614 10.8239C5.32197 11 4.90814 11.0881 4.43466 11.0881C3.95928 11.0881 3.54451 11 3.19034 10.8239C2.83617 10.6458 2.56155 10.3987 2.36648 10.0824C2.1714 9.7661 2.07386 9.39962 2.07386 8.98295V5.18182H3.12784V8.89489C3.12784 9.13731 3.18087 9.35322 3.28693 9.54261C3.39489 9.73201 3.5464 9.88068 3.74148 9.98864C3.93655 10.0947 4.16761 10.1477 4.43466 10.1477C4.7017 10.1477 4.93277 10.0947 5.12784 9.98864C5.32481 9.88068 5.47633 9.73201 5.58239 9.54261C5.68845 9.35322 5.74148 9.13731 5.74148 8.89489V5.18182ZM7.54105 11V5.18182H9.72287C10.1698 5.18182 10.5448 5.26515 10.8479 5.43182C11.1528 5.59848 11.3829 5.82765 11.5382 6.11932C11.6954 6.40909 11.774 6.73864 11.774 7.10795C11.774 7.48106 11.6954 7.8125 11.5382 8.10227C11.381 8.39205 11.149 8.62027 10.8422 8.78693C10.5354 8.9517 10.1575 9.03409 9.70866 9.03409H8.26264V8.16761H9.56662C9.82798 8.16761 10.042 8.12216 10.2087 8.03125C10.3753 7.94034 10.4984 7.81534 10.578 7.65625C10.6594 7.49716 10.7001 7.31439 10.7001 7.10795C10.7001 6.90152 10.6594 6.7197 10.578 6.5625C10.4984 6.4053 10.3744 6.28314 10.2058 6.19602C10.0392 6.10701 9.8242 6.0625 9.56094 6.0625H8.59503V11H7.54105ZM13.5026 5.18182L13.4088 9.28977H12.494L12.4031 5.18182H13.5026ZM12.9514 11.0625C12.7791 11.0625 12.6313 11.0019 12.5082 10.8807C12.387 10.7595 12.3264 10.6117 12.3264 10.4375C12.3264 10.267 12.387 10.1212 12.5082 10C12.6313 9.87879 12.7791 9.81818 12.9514 9.81818C13.12 9.81818 13.2658 9.87879 13.3889 10C13.5139 10.1212 13.5764 10.267 13.5764 10.4375C13.5764 10.553 13.5471 10.6581 13.4884 10.7528C13.4315 10.8475 13.3558 10.9233 13.2611 10.9801C13.1683 11.035 13.0651 11.0625 12.9514 11.0625Z" fill="white"></path>
</svg>